<svg width="32" height="32" viewBox="0 0 32 32" fill="none" xmlns="http://www.w3.org/2000/svg">
<g clip-path="url(#clip0_121_2)">
<path d="M25.8545 4.25227C23.1896 2.01443 19.7523 0.666667 16 0.666667C7.53163 0.666667 0.666656 7.53164 0.666656 16C0.666656 24.4684 7.53163 31.3333 16 31.3333C24.4684 31.3333 31.3333 24.4684 31.3333 16C31.3333 13.7199 30.8356 11.556 29.9431 9.61111" stroke="#333333" stroke-linecap="round"/>
<path d="M7.33332 8L7.59594 7.38724C7.38996 7.29896 7.15342 7.32008 6.96632 7.44344C6.77924 7.5668 6.66666 7.77591 6.66666 8H7.33332ZM13.1168 20.9928L13.6931 21.3281C13.7984 21.1468 13.8125 20.9265 13.7309 20.7335C13.6493 20.5403 13.4816 20.3968 13.2781 20.346L13.1168 20.9928ZM18.8832 20.9928L18.7219 20.346C18.5184 20.3968 18.3507 20.5403 18.2691 20.7335C18.1875 20.9265 18.2016 21.1468 18.3069 21.3281L18.8832 20.9928ZM24.6667 8H25.3333C25.3333 7.77591 25.2208 7.5668 25.0336 7.44344C24.8465 7.32008 24.61 7.29896 24.404 7.38724L24.6667 8ZM20 10V10.6667C20.0903 10.6667 20.1796 10.6483 20.2627 10.6128L20 10ZM12 10L11.7374 10.6128C11.8204 10.6483 11.9097 10.6667 12 10.6667V10ZM7.99999 14.6667V8H6.66666V14.6667H7.99999ZM13.2781 20.346C9.95216 19.5161 7.99999 17.2249 7.99999 14.6667H6.66666C6.66666 17.9981 9.20772 20.7045 12.9554 21.6397L13.2781 20.346ZM13.3333 22.6667C13.3333 22.1775 13.4644 21.7209 13.6931 21.3281L12.5405 20.6576C12.1967 21.2485 12 21.9356 12 22.6667H13.3333ZM13.3333 26V22.6667H12V26H13.3333ZM14 26.6667C13.6319 26.6667 13.3333 26.3681 13.3333 26H12C12 27.1045 12.8954 28 14 28V26.6667ZM18 26.6667H14V28H18V26.6667ZM18.6667 26C18.6667 26.3681 18.3681 26.6667 18 26.6667V28C19.1045 28 20 27.1045 20 26H18.6667ZM18.6667 22.6667V26H20V22.6667H18.6667ZM18.3069 21.3281C18.5356 21.7209 18.6667 22.1775 18.6667 22.6667H20C20 21.9356 19.8033 21.2485 19.4595 20.6576L18.3069 21.3281ZM24 14.6667C24 17.2249 22.0479 19.5161 18.7219 20.346L19.0447 21.6397C22.7923 20.7045 25.3333 17.9981 25.3333 14.6667H24ZM24 8V14.6667H25.3333V8H24ZM20.2627 10.6128L24.9293 8.61276L24.404 7.38724L19.7373 9.38724L20.2627 10.6128ZM12 10.6667H20V9.33333H12V10.6667ZM7.07071 8.61276L11.7374 10.6128L12.2626 9.38724L7.59594 7.38724L7.07071 8.61276Z" fill="#FF6F3D"/>
<path d="M12.6668 24.6667C10.6668 24.6667 9.73349 24.9333 8.66682 23.3333C8.15929 22.572 7.33349 22 6.00015 22" stroke="#FF6F3D" stroke-linecap="round"/>
</g>
<defs>
<clipPath id="clip0_121_2">
<rect width="32" height="32" fill="white"/>
</clipPath>
</defs>
</svg>
