<svg width="64" height="64" viewBox="0 0 64 64" fill="none" xmlns="http://www.w3.org/2000/svg">
<path fill-rule="evenodd" clip-rule="evenodd" d="M55 55H17V3H47L55 11V55Z" fill="white"/>
<path d="M31.5 55.5H16.5V2.5H47L55.5 11V28.5" stroke="#333333" stroke-miterlimit="10" stroke-linecap="round" stroke-linejoin="round"/>
<rect x="26" y="31" width="12" height="1" rx="0.5" fill="#333333"/>
<rect x="26" y="35" width="4" height="1" rx="0.5" fill="#333333"/>
<rect x="26" y="39" width="2" height="1" rx="0.5" fill="#333333"/>
<rect x="22" y="27" width="28" height="1" rx="0.5" fill="#333333"/>
<path d="M55 11.5C55.2022 11.5 55.3845 11.3782 55.4619 11.1913C55.5393 11.0045 55.4966 10.7894 55.3536 10.6464L47.3536 2.64645C47.2106 2.50345 46.9955 2.46067 46.8087 2.53806C46.6218 2.61545 46.5 2.79777 46.5 3V11C46.5 11.2761 46.7239 11.5 47 11.5H55Z" fill="url(#paint0_linear_2442_9054)" stroke="#333333" stroke-miterlimit="10" stroke-linecap="round" stroke-linejoin="round"/>
<mask id="path-8-inside-1_2442_9054" fill="white">
<path fill-rule="evenodd" clip-rule="evenodd" d="M60 43.2454V48.7546L57.6803 49.2862L56.9071 51.2193L58.1636 53.2007L54.2491 57.1152L52.2193 55.8587L50.2862 56.6803L49.7546 59H44.2454L43.7138 56.6803L41.7807 55.9071L39.7993 57.1636L35.8848 53.2491L37.1413 51.2193L36.3197 49.2862L34 48.7546V43.2454L36.3197 42.7138L37.0929 40.7807L35.8364 38.7993L39.7509 34.8848L41.7807 36.1413L43.7138 35.3197L44.2454 33H49.7546L50.2862 35.3197L52.2193 36.0929L54.2007 34.8364L58.1152 38.7509L56.8587 40.7807L57.6803 42.7138L60 43.2454ZM47 50.6429C49.5642 50.6429 51.6429 48.5642 51.6429 46C51.6429 43.4358 49.5642 41.3571 47 41.3571C44.4358 41.3571 42.3571 43.4358 42.3571 46C42.3571 48.5642 44.4358 50.6429 47 50.6429Z"/>
</mask>
<path fill-rule="evenodd" clip-rule="evenodd" d="M60 43.2454V48.7546L57.6803 49.2862L56.9071 51.2193L58.1636 53.2007L54.2491 57.1152L52.2193 55.8587L50.2862 56.6803L49.7546 59H44.2454L43.7138 56.6803L41.7807 55.9071L39.7993 57.1636L35.8848 53.2491L37.1413 51.2193L36.3197 49.2862L34 48.7546V43.2454L36.3197 42.7138L37.0929 40.7807L35.8364 38.7993L39.7509 34.8848L41.7807 36.1413L43.7138 35.3197L44.2454 33H49.7546L50.2862 35.3197L52.2193 36.0929L54.2007 34.8364L58.1152 38.7509L56.8587 40.7807L57.6803 42.7138L60 43.2454ZM47 50.6429C49.5642 50.6429 51.6429 48.5642 51.6429 46C51.6429 43.4358 49.5642 41.3571 47 41.3571C44.4358 41.3571 42.3571 43.4358 42.3571 46C42.3571 48.5642 44.4358 50.6429 47 50.6429Z" fill="url(#paint1_linear_2442_9054)"/>
<path d="M60 48.7546L60.2234 49.7294L61 49.5514V48.7546H60ZM60 43.2454H61V42.4486L60.2234 42.2706L60 43.2454ZM57.6803 49.2862L57.4569 48.3115L56.9464 48.4285L56.7518 48.9149L57.6803 49.2862ZM56.9071 51.2193L55.9786 50.8479L55.7886 51.3229L56.0626 51.7549L56.9071 51.2193ZM58.1636 53.2007L58.8707 53.9079L59.437 53.3415L59.0081 52.6652L58.1636 53.2007ZM54.2491 57.1152L53.7227 57.9655L54.3961 58.3824L54.9562 57.8223L54.2491 57.1152ZM52.2193 55.8587L52.7457 55.0085L52.3051 54.7357L51.8282 54.9384L52.2193 55.8587ZM50.2862 56.6803L49.8951 55.76L49.4255 55.9596L49.3115 56.4569L50.2862 56.6803ZM49.7546 59V60H50.5514L50.7294 59.2234L49.7546 59ZM44.2454 59L43.2706 59.2234L43.4486 60H44.2454V59ZM43.7138 56.6803L44.6885 56.4569L44.5715 55.9464L44.0851 55.7518L43.7138 56.6803ZM41.7807 55.9071L42.1521 54.9786L41.6771 54.7886L41.2451 55.0626L41.7807 55.9071ZM39.7993 57.1636L39.0921 57.8707L39.6585 58.437L40.3348 58.0081L39.7993 57.1636ZM35.8848 53.2491L35.0345 52.7227L34.6176 53.3961L35.1777 53.9562L35.8848 53.2491ZM37.1413 51.2193L37.9915 51.7457L38.2643 51.3051L38.0616 50.8282L37.1413 51.2193ZM36.3197 49.2862L37.24 48.8951L37.0404 48.4255L36.5431 48.3115L36.3197 49.2862ZM34 48.7546H33V49.5514L33.7766 49.7294L34 48.7546ZM34 43.2454L33.7766 42.2706L33 42.4486V43.2454H34ZM36.3197 42.7138L36.5431 43.6885L37.0536 43.5715L37.2482 43.0851L36.3197 42.7138ZM37.0929 40.7807L38.0214 41.1521L38.2114 40.6771L37.9374 40.2451L37.0929 40.7807ZM35.8364 38.7993L35.1293 38.0921L34.563 38.6585L34.9919 39.3348L35.8364 38.7993ZM39.7509 34.8848L40.2773 34.0345L39.6039 33.6176L39.0438 34.1777L39.7509 34.8848ZM41.7807 36.1413L41.2543 36.9915L41.6949 37.2643L42.1718 37.0616L41.7807 36.1413ZM43.7138 35.3197L44.1049 36.24L44.5745 36.0404L44.6885 35.5431L43.7138 35.3197ZM44.2454 33V32H43.4486L43.2706 32.7766L44.2454 33ZM49.7546 33L50.7294 32.7766L50.5514 32H49.7546V33ZM50.2862 35.3197L49.3115 35.5431L49.4285 36.0536L49.9149 36.2482L50.2862 35.3197ZM52.2193 36.0929L51.8479 37.0214L52.3229 37.2114L52.7549 36.9374L52.2193 36.0929ZM54.2007 34.8364L54.9079 34.1293L54.3415 33.563L53.6652 33.9919L54.2007 34.8364ZM58.1152 38.7509L58.9655 39.2773L59.3824 38.6039L58.8223 38.0438L58.1152 38.7509ZM56.8587 40.7807L56.0085 40.2543L55.7357 40.6949L55.9384 41.1718L56.8587 40.7807ZM57.6803 42.7138L56.76 43.1049L56.9596 43.5745L57.4569 43.6885L57.6803 42.7138ZM61 48.7546V43.2454H59V48.7546H61ZM57.9037 50.261L60.2234 49.7294L59.7766 47.7799L57.4569 48.3115L57.9037 50.261ZM57.8355 51.5907L58.6088 49.6576L56.7518 48.9149L55.9786 50.8479L57.8355 51.5907ZM59.0081 52.6652L57.7516 50.6838L56.0626 51.7549L57.3191 53.7363L59.0081 52.6652ZM54.9562 57.8223L58.8707 53.9079L57.4565 52.4936L53.542 56.4081L54.9562 57.8223ZM51.693 56.709L53.7227 57.9655L54.7754 56.265L52.7457 55.0085L51.693 56.709ZM50.6774 57.6006L52.6105 56.7791L51.8282 54.9384L49.8951 55.76L50.6774 57.6006ZM50.7294 59.2234L51.261 56.9037L49.3115 56.4569L48.7799 58.7766L50.7294 59.2234ZM44.2454 60H49.7546V58H44.2454V60ZM42.739 56.9037L43.2706 59.2234L45.2201 58.7766L44.6885 56.4569L42.739 56.9037ZM41.4093 56.8355L43.3424 57.6088L44.0851 55.7518L42.1521 54.9786L41.4093 56.8355ZM40.3348 58.0081L42.3162 56.7516L41.2451 55.0626L39.2637 56.3191L40.3348 58.0081ZM35.1777 53.9562L39.0921 57.8707L40.5064 56.4565L36.5919 52.542L35.1777 53.9562ZM36.291 50.693L35.0345 52.7227L36.735 53.7754L37.9915 51.7457L36.291 50.693ZM35.3994 49.6774L36.2209 51.6105L38.0616 50.8282L37.24 48.8951L35.3994 49.6774ZM33.7766 49.7294L36.0963 50.261L36.5431 48.3115L34.2234 47.7799L33.7766 49.7294ZM33 43.2454V48.7546H35V43.2454H33ZM36.0963 41.739L33.7766 42.2706L34.2234 44.2201L36.5431 43.6885L36.0963 41.739ZM36.1645 40.4093L35.3912 42.3424L37.2482 43.0851L38.0214 41.1521L36.1645 40.4093ZM34.9919 39.3348L36.2484 41.3162L37.9374 40.2451L36.6809 38.2637L34.9919 39.3348ZM39.0438 34.1777L35.1293 38.0921L36.5435 39.5064L40.458 35.5919L39.0438 34.1777ZM42.307 35.291L40.2773 34.0345L39.2246 35.735L41.2543 36.9915L42.307 35.291ZM43.3226 34.3994L41.3895 35.2209L42.1718 37.0616L44.1049 36.24L43.3226 34.3994ZM43.2706 32.7766L42.739 35.0963L44.6885 35.5431L45.2201 33.2234L43.2706 32.7766ZM49.7546 32H44.2454V34H49.7546V32ZM51.261 35.0963L50.7294 32.7766L48.7799 33.2234L49.3115 35.5431L51.261 35.0963ZM52.5907 35.1645L50.6576 34.3912L49.9149 36.2482L51.8479 37.0214L52.5907 35.1645ZM53.6652 33.9919L51.6838 35.2484L52.7549 36.9374L54.7363 35.6809L53.6652 33.9919ZM58.8223 38.0438L54.9079 34.1293L53.4936 35.5435L57.4081 39.458L58.8223 38.0438ZM57.709 41.307L58.9655 39.2773L57.265 38.2246L56.0085 40.2543L57.709 41.307ZM58.6006 42.3226L57.7791 40.3895L55.9384 41.1718L56.76 43.1049L58.6006 42.3226ZM60.2234 42.2706L57.9037 41.739L57.4569 43.6885L59.7766 44.2201L60.2234 42.2706ZM50.6429 46C50.6429 48.0119 49.0119 49.6429 47 49.6429V51.6429C50.1165 51.6429 52.6429 49.1165 52.6429 46H50.6429ZM47 42.3571C49.0119 42.3571 50.6429 43.9881 50.6429 46H52.6429C52.6429 42.8835 50.1165 40.3571 47 40.3571V42.3571ZM43.3571 46C43.3571 43.9881 44.9881 42.3571 47 42.3571V40.3571C43.8835 40.3571 41.3571 42.8835 41.3571 46H43.3571ZM47 49.6429C44.9881 49.6429 43.3571 48.0119 43.3571 46H41.3571C41.3571 49.1165 43.8835 51.6429 47 51.6429V49.6429Z" fill="#333333" mask="url(#path-8-inside-1_2442_9054)"/>
<path d="M25 11L23 13.5L25 16" stroke="#333333" stroke-width="2" stroke-linecap="round" stroke-linejoin="round"/>
<path d="M35 16L37 13.5L35 11" stroke="#333333" stroke-width="2" stroke-linecap="round" stroke-linejoin="round"/>
<path d="M31 9L29 18" stroke="#333333" stroke-width="2" stroke-linecap="round" stroke-linejoin="round"/>
<path d="M14.5 3.5H13.5C12.9477 3.5 12.5 3.94772 12.5 4.5V53.5C12.5 54.0523 12.9477 54.5 13.5 54.5H14.5" stroke="#333333" stroke-linecap="round"/>
<path d="M10.5 3.5H9.5C8.94772 3.5 8.5 3.94772 8.5 4.5V53.5C8.5 54.0523 8.94772 54.5 9.5 54.5H10.5" stroke="#333333" stroke-linecap="round"/>
<defs>
<linearGradient id="paint0_linear_2442_9054" x1="47" y1="2.6875" x2="55" y2="11" gradientUnits="userSpaceOnUse">
<stop stop-color="#FF8E3D"/>
<stop offset="1" stop-color="#FF6F3D"/>
</linearGradient>
<linearGradient id="paint1_linear_2442_9054" x1="34.0001" y1="31.9844" x2="60" y2="59" gradientUnits="userSpaceOnUse">
<stop stop-color="#FFC671"/>
<stop offset="0.59375" stop-color="#FF7541"/>
<stop offset="1" stop-color="#FF6F3D"/>
</linearGradient>
</defs>
</svg>
