<svg width="32" height="32" viewBox="0 0 32 32" fill="none" xmlns="http://www.w3.org/2000/svg">
<path fill-rule="evenodd" clip-rule="evenodd" d="M27.5 27.5H8.5V1.5H23.5L27.5 5.5V27.5Z" fill="#666666"/>
<path d="M15.75 27.75H8.25V1.25H23.5L27.75 5.5V14.25" stroke="#333333" stroke-miterlimit="10" stroke-linecap="round" stroke-linejoin="round"/>
<path d="M18.75 15.5H13.25C13.1119 15.5 13 15.6119 13 15.75C13 15.8881 13.1119 16 13.25 16H18.75C18.8881 16 19 15.8881 19 15.75C19 15.6119 18.8881 15.5 18.75 15.5Z" fill="#333333"/>
<path d="M14.75 17.5H13.25C13.1119 17.5 13 17.6119 13 17.75C13 17.8881 13.1119 18 13.25 18H14.75C14.8881 18 15 17.8881 15 17.75C15 17.6119 14.8881 17.5 14.75 17.5Z" fill="#333333"/>
<path d="M13.75 19.5H13.25C13.1119 19.5 13 19.6119 13 19.75C13 19.8881 13.1119 20 13.25 20H13.75C13.8881 20 14 19.8881 14 19.75C14 19.6119 13.8881 19.5 13.75 19.5Z" fill="#333333"/>
<path d="M24.75 13.5H11.25C11.1119 13.5 11 13.6119 11 13.75C11 13.8881 11.1119 14 11.25 14H24.75C24.8881 14 25 13.8881 25 13.75C25 13.6119 24.8881 13.5 24.75 13.5Z" fill="#333333"/>
<path d="M27.5 5.75C27.6011 5.75 27.6922 5.6891 27.7309 5.59565C27.7696 5.50225 27.7483 5.3947 27.6768 5.3232L23.6768 1.32322C23.6053 1.25172 23.4978 1.23033 23.4044 1.26903C23.3109 1.30772 23.25 1.39888 23.25 1.5V5.5C23.25 5.63805 23.3619 5.75 23.5 5.75H27.5Z" fill="url(#paint0_linear_118_23)" stroke="#333333" stroke-miterlimit="10" stroke-linecap="round" stroke-linejoin="round"/>
<path fill-rule="evenodd" clip-rule="evenodd" d="M30 21.6227V24.3773L28.8402 24.6431L28.4536 25.6096L29.0818 26.6003L27.1245 28.5576L26.1096 27.9293L25.1431 28.3402L24.8773 29.5H22.1227L21.8569 28.3402L20.8904 27.9536L19.8997 28.5818L17.9424 26.6245L18.5707 25.6096L18.1598 24.6431L17 24.3773V21.6227L18.1598 21.3569L18.5464 20.3904L17.9182 19.3997L19.8755 17.4424L20.8904 18.0707L21.8569 17.6598L22.1227 16.5H24.8773L25.1431 17.6598L26.1096 18.0464L27.1003 17.4182L29.0576 19.3755L28.4293 20.3904L28.8402 21.3569L30 21.6227ZM23.5 25.3214C24.7821 25.3214 25.8214 24.2821 25.8214 23C25.8214 21.7179 24.7821 20.6786 23.5 20.6786C22.2179 20.6786 21.1786 21.7179 21.1786 23C21.1786 24.2821 22.2179 25.3214 23.5 25.3214Z" fill="url(#paint1_linear_118_23)"/>
<mask id="mask0_118_23" style="mask-type:luminance" maskUnits="userSpaceOnUse" x="17" y="16" width="13" height="14">
<path fill-rule="evenodd" clip-rule="evenodd" d="M30 21.6227V24.3773L28.8402 24.6431L28.4536 25.6096L29.0818 26.6003L27.1245 28.5576L26.1096 27.9293L25.1431 28.3402L24.8773 29.5H22.1227L21.8569 28.3402L20.8904 27.9536L19.8997 28.5818L17.9424 26.6245L18.5707 25.6096L18.1598 24.6431L17 24.3773V21.6227L18.1598 21.3569L18.5464 20.3904L17.9182 19.3997L19.8755 17.4424L20.8904 18.0707L21.8569 17.6598L22.1227 16.5H24.8773L25.1431 17.6598L26.1096 18.0464L27.1003 17.4182L29.0576 19.3755L28.4293 20.3904L28.8402 21.3569L30 21.6227ZM23.5 25.3214C24.7821 25.3214 25.8214 24.2821 25.8214 23C25.8214 21.7179 24.7821 20.6786 23.5 20.6786C22.2179 20.6786 21.1786 21.7179 21.1786 23C21.1786 24.2821 22.2179 25.3214 23.5 25.3214Z" fill="white"/>
</mask>
<g mask="url(#mask0_118_23)">
<path d="M30 24.3773L30.1117 24.8647L30.5 24.7757V24.3773H30ZM30 21.6227H30.5V21.2243L30.1117 21.1353L30 21.6227ZM28.8402 24.6431L28.7285 24.1558L28.4732 24.2143L28.3759 24.4575L28.8402 24.6431ZM28.4536 25.6096L27.9893 25.424L27.8943 25.6614L28.0313 25.8775L28.4536 25.6096ZM29.0818 26.6003L29.4354 26.954L29.7185 26.6707L29.504 26.3326L29.0818 26.6003ZM27.1245 28.5576L26.8613 28.9827L27.198 29.1912L27.4781 28.9111L27.1245 28.5576ZM26.1096 27.9293L26.3729 27.5042L26.1525 27.3678L25.9141 27.4692L26.1096 27.9293ZM25.1431 28.3402L24.9475 27.88L24.7127 27.9798L24.6558 28.2285L25.1431 28.3402ZM24.8773 29.5V30H25.2757L25.3647 29.6117L24.8773 29.5ZM22.1227 29.5L21.6353 29.6117L21.7243 30H22.1227V29.5ZM21.8569 28.3402L22.3442 28.2285L22.2857 27.9732L22.0425 27.8759L21.8569 28.3402ZM20.8904 27.9536L21.076 27.4893L20.8386 27.3943L20.6225 27.5313L20.8904 27.9536ZM19.8997 28.5818L19.546 28.9354L19.8293 29.2185L20.1674 29.004L19.8997 28.5818ZM17.9424 26.6245L17.5173 26.3613L17.3088 26.698L17.5889 26.9781L17.9424 26.6245ZM18.5707 25.6096L18.9958 25.8729L19.1322 25.6525L19.0308 25.4141L18.5707 25.6096ZM18.1598 24.6431L18.62 24.4475L18.5202 24.2127L18.2715 24.1558L18.1598 24.6431ZM17 24.3773H16.5V24.7757L16.8883 24.8647L17 24.3773ZM17 21.6227L16.8883 21.1353L16.5 21.2243V21.6227H17ZM18.1598 21.3569L18.2715 21.8442L18.5268 21.7857L18.6241 21.5425L18.1598 21.3569ZM18.5464 20.3904L19.0107 20.576L19.1057 20.3386L18.9687 20.1225L18.5464 20.3904ZM17.9182 19.3997L17.5646 19.046L17.2815 19.3293L17.496 19.6674L17.9182 19.3997ZM19.8755 17.4424L20.1387 17.0173L19.802 16.8088L19.5219 17.0889L19.8755 17.4424ZM20.8904 18.0707L20.6271 18.4958L20.8475 18.6322L21.0859 18.5308L20.8904 18.0707ZM21.8569 17.6598L22.0525 18.12L22.2873 18.0202L22.3442 17.7715L21.8569 17.6598ZM22.1227 16.5V16H21.7243L21.6353 16.3883L22.1227 16.5ZM24.8773 16.5L25.3647 16.3883L25.2757 16H24.8773V16.5ZM25.1431 17.6598L24.6558 17.7715L24.7143 18.0268L24.9575 18.1241L25.1431 17.6598ZM26.1096 18.0464L25.924 18.5107L26.1614 18.6057L26.3775 18.4687L26.1096 18.0464ZM27.1003 17.4182L27.454 17.0646L27.1707 16.7815L26.8326 16.996L27.1003 17.4182ZM29.0576 19.3755L29.4827 19.6387L29.6912 19.302L29.4111 19.0219L29.0576 19.3755ZM28.4293 20.3904L28.0042 20.1271L27.8678 20.3475L27.9692 20.5859L28.4293 20.3904ZM28.8402 21.3569L28.38 21.5525L28.4798 21.7873L28.7285 21.8442L28.8402 21.3569ZM30.5 24.3773V21.6227H29.5V24.3773H30.5ZM28.9519 25.1305L30.1117 24.8647L29.8883 23.8899L28.7285 24.1558L28.9519 25.1305ZM28.9177 25.7953L29.3044 24.8288L28.3759 24.4575L27.9893 25.424L28.9177 25.7953ZM29.504 26.3326L28.8758 25.3419L28.0313 25.8775L28.6595 26.8682L29.504 26.3326ZM27.4781 28.9111L29.4354 26.954L28.7283 26.2468L26.771 28.2041L27.4781 28.9111ZM25.8465 28.3545L26.8613 28.9827L27.3877 28.1325L26.3729 27.5042L25.8465 28.3545ZM25.3387 28.8003L26.3053 28.3895L25.9141 27.4692L24.9475 27.88L25.3387 28.8003ZM25.3647 29.6117L25.6305 28.4519L24.6558 28.2285L24.3899 29.3883L25.3647 29.6117ZM22.1227 30H24.8773V29H22.1227V30ZM21.3695 28.4519L21.6353 29.6117L22.6101 29.3883L22.3442 28.2285L21.3695 28.4519ZM20.7047 28.4177L21.6712 28.8044L22.0425 27.8759L21.076 27.4893L20.7047 28.4177ZM20.1674 29.004L21.1581 28.3758L20.6225 27.5313L19.6318 28.1595L20.1674 29.004ZM17.5889 26.9781L19.546 28.9354L20.2532 28.2283L18.2959 26.271L17.5889 26.9781ZM18.1455 25.3465L17.5173 26.3613L18.3675 26.8877L18.9958 25.8729L18.1455 25.3465ZM17.6997 24.8387L18.1105 25.8053L19.0308 25.4141L18.62 24.4475L17.6997 24.8387ZM16.8883 24.8647L18.0481 25.1305L18.2715 24.1558L17.1117 23.8899L16.8883 24.8647ZM16.5 21.6227V24.3773H17.5V21.6227H16.5ZM18.0481 20.8695L16.8883 21.1353L17.1117 22.1101L18.2715 21.8442L18.0481 20.8695ZM18.0823 20.2047L17.6956 21.1712L18.6241 21.5425L19.0107 20.576L18.0823 20.2047ZM17.496 19.6674L18.1242 20.6581L18.9687 20.1225L18.3405 19.1318L17.496 19.6674ZM19.5219 17.0889L17.5646 19.046L18.2717 19.7532L20.229 17.7959L19.5219 17.0889ZM21.1535 17.6455L20.1387 17.0173L19.6123 17.8675L20.6271 18.4958L21.1535 17.6455ZM21.6613 17.1997L20.6947 17.6105L21.0859 18.5308L22.0525 18.12L21.6613 17.1997ZM21.6353 16.3883L21.3695 17.5481L22.3442 17.7715L22.6101 16.6117L21.6353 16.3883ZM24.8773 16H22.1227V17H24.8773V16ZM25.6305 17.5481L25.3647 16.3883L24.3899 16.6117L24.6558 17.7715L25.6305 17.5481ZM26.2953 17.5823L25.3288 17.1956L24.9575 18.1241L25.924 18.5107L26.2953 17.5823ZM26.8326 16.996L25.8419 17.6242L26.3775 18.4687L27.3682 17.8405L26.8326 16.996ZM29.4111 19.0219L27.454 17.0646L26.7468 17.7717L28.7041 19.729L29.4111 19.0219ZM28.8545 20.6535L29.4827 19.6387L28.6325 19.1123L28.0042 20.1271L28.8545 20.6535ZM29.3003 21.1613L28.8895 20.1947L27.9692 20.5859L28.38 21.5525L29.3003 21.1613ZM30.1117 21.1353L28.9519 20.8695L28.7285 21.8442L29.8883 22.1101L30.1117 21.1353ZM25.3214 23C25.3214 24.0059 24.5059 24.8214 23.5 24.8214V25.8214C25.0582 25.8214 26.3214 24.5582 26.3214 23H25.3214ZM23.5 21.1786C24.5059 21.1786 25.3214 21.9941 25.3214 23H26.3214C26.3214 21.4418 25.0582 20.1786 23.5 20.1786V21.1786ZM21.6786 23C21.6786 21.9941 22.4941 21.1786 23.5 21.1786V20.1786C21.9418 20.1786 20.6786 21.4418 20.6786 23H21.6786ZM23.5 24.8214C22.4941 24.8214 21.6786 24.0059 21.6786 23H20.6786C20.6786 24.5582 21.9418 25.8214 23.5 25.8214V24.8214Z" fill="#333333"/>
</g>
<path d="M12.5 5.5L11.5 6.75L12.5 8" stroke="#333333" stroke-width="2" stroke-linecap="round" stroke-linejoin="round"/>
<path d="M17.5 8L18.5 6.75L17.5 5.5" stroke="#333333" stroke-width="2" stroke-linecap="round" stroke-linejoin="round"/>
<path d="M15.5 4.5L14.5 9" stroke="#333333" stroke-width="2" stroke-linecap="round" stroke-linejoin="round"/>
<path d="M7.25 1.75H6.75C6.47385 1.75 6.25 1.97386 6.25 2.25V26.75C6.25 27.0261 6.47385 27.25 6.75 27.25H7.25" stroke="#333333" stroke-linecap="round"/>
<path d="M5.25 1.75H4.75C4.47386 1.75 4.25 1.97386 4.25 2.25V26.75C4.25 27.0261 4.47386 27.25 4.75 27.25H5.25" stroke="#333333" stroke-linecap="round"/>
<defs>
<linearGradient id="paint0_linear_118_23" x1="23.5" y1="1.34375" x2="27.5" y2="5.5" gradientUnits="userSpaceOnUse">
<stop stop-color="#FF8E3D"/>
<stop offset="1" stop-color="#FF6F3D"/>
</linearGradient>
<linearGradient id="paint1_linear_118_23" x1="17.0001" y1="15.9922" x2="30" y2="29.5" gradientUnits="userSpaceOnUse">
<stop stop-color="#FFC671"/>
<stop offset="0.59375" stop-color="#FF7541"/>
<stop offset="1" stop-color="#FF6F3D"/>
</linearGradient>
</defs>
</svg>
