<svg width="32" height="32" viewBox="0 0 32 32" fill="none" xmlns="http://www.w3.org/2000/svg">
<path d="M16.25 31.5L5.25 25.25V18L16.25 24.25V31.5Z" fill="#F9F9F9" stroke="#333333" stroke-miterlimit="10" stroke-linecap="round" stroke-linejoin="round"/>
<path d="M16.25 31.5L27.25 25.25V18L16.25 24.25V31.5Z" fill="#F9F9F9" stroke="#333333" stroke-miterlimit="10" stroke-linecap="round" stroke-linejoin="round"/>
<path d="M16.25 11.5L5.25 18L16.25 24.25L27.25 18L16.25 11.5Z" fill="#E2E2E2" stroke="#333333" stroke-linejoin="round"/>
<path d="M16.25 21.5L5.25 15.25V8L16.25 14.25V21.5Z" fill="#BDECFF" stroke="#333333" stroke-miterlimit="10" stroke-linecap="round" stroke-linejoin="round"/>
<path d="M16.25 21.5L27.25 15.25V8L16.25 14.25V21.5Z" fill="#BDECFF" stroke="#333333" stroke-miterlimit="10" stroke-linecap="round" stroke-linejoin="round"/>
<path d="M15.4869 1.95092L5.25 8L16.25 14.25L27.25 8L17.0131 1.95092C16.5424 1.67277 15.9576 1.67277 15.4869 1.95092Z" fill="#9ADAF3" stroke="#333333" stroke-linejoin="round"/>
<path d="M14 2.75C13.8619 2.75 13.75 2.86193 13.75 3V4.78572C13.75 4.99953 13.8872 5.15825 14.0279 5.2633C14.1732 5.37195 14.3677 5.45935 14.5853 5.52845C15.0235 5.66755 15.6126 5.75 16.25 5.75C16.8874 5.75 17.4765 5.66755 17.9147 5.52845C18.1323 5.45935 18.3267 5.37195 18.4721 5.2633C18.6127 5.15825 18.75 4.99953 18.75 4.78572V3C18.75 2.86193 18.6381 2.75 18.5 2.75H14Z" fill="#9ADAF3" stroke="#333333" stroke-miterlimit="10" stroke-linecap="round" stroke-linejoin="round"/>
<path d="M7.5 5.75C7.36195 5.75 7.25 5.86195 7.25 6V7.7857C7.25 7.99955 7.38725 8.15825 7.5279 8.2633C7.67325 8.37195 7.86765 8.45935 8.0853 8.52845C8.5235 8.66755 9.11265 8.75 9.75 8.75C10.3874 8.75 10.9765 8.66755 11.4147 8.52845C11.6323 8.45935 11.8268 8.37195 11.9721 8.2633C12.1128 8.15825 12.25 7.99955 12.25 7.7857V6C12.25 5.86195 12.1381 5.75 12 5.75H7.5Z" fill="#9ADAF3" stroke="#333333" stroke-miterlimit="10" stroke-linecap="round" stroke-linejoin="round"/>
<path d="M20 5.75C19.8619 5.75 19.75 5.86195 19.75 6V7.7857C19.75 7.99955 19.8873 8.15825 20.0279 8.2633C20.1733 8.37195 20.3677 8.45935 20.5853 8.52845C21.0235 8.66755 21.6126 8.75 22.25 8.75C22.8874 8.75 23.4765 8.66755 23.9147 8.52845C24.1323 8.45935 24.3267 8.37195 24.4721 8.2633C24.6127 8.15825 24.75 7.99955 24.75 7.7857V6C24.75 5.86195 24.6381 5.75 24.5 5.75H20Z" fill="#9ADAF3" stroke="#333333" stroke-miterlimit="10" stroke-linecap="round" stroke-linejoin="round"/>
<path d="M14 8.75C13.8619 8.75 13.75 8.86195 13.75 9V10.7857C13.75 10.9995 13.8872 11.1582 14.0279 11.2633C14.1732 11.3719 14.3677 11.4594 14.5853 11.5285C15.0235 11.6676 15.6126 11.75 16.25 11.75C16.8874 11.75 17.4765 11.6676 17.9147 11.5285C18.1323 11.4594 18.3267 11.3719 18.4721 11.2633C18.6127 11.1582 18.75 10.9995 18.75 10.7857V9C18.75 8.86195 18.6381 8.75 18.5 8.75H14Z" fill="#9ADAF3" stroke="#333333" stroke-miterlimit="10" stroke-linecap="round" stroke-linejoin="round"/>
<path d="M16.25 3.75C16.8907 3.75 17.4811 3.6638 17.92 3.5175C18.1382 3.44478 18.3327 3.35269 18.4779 3.23829C18.6203 3.12611 18.75 2.96298 18.75 2.75C18.75 2.53702 18.6203 2.37389 18.4779 2.26171C18.3327 2.14731 18.1382 2.05521 17.92 1.9825C17.4811 1.8362 16.8907 1.75 16.25 1.75C15.6093 1.75 15.0189 1.8362 14.58 1.9825C14.3618 2.05521 14.1672 2.14731 14.022 2.26171C13.8797 2.37389 13.75 2.53702 13.75 2.75C13.75 2.96298 13.8797 3.12611 14.022 3.23829C14.1672 3.35269 14.3618 3.44478 14.58 3.5175C15.0189 3.6638 15.6093 3.75 16.25 3.75Z" fill="#BDECFF" stroke="#333333" stroke-miterlimit="10" stroke-linecap="round" stroke-linejoin="round"/>
<path d="M9.75 6.75C10.3907 6.75 10.9811 6.6638 11.42 6.5175C11.6382 6.4448 11.8328 6.3527 11.978 6.2383C12.1203 6.1261 12.25 5.963 12.25 5.75C12.25 5.537 12.1203 5.3739 11.978 5.2617C11.8328 5.1473 11.6382 5.0552 11.42 4.9825C10.9811 4.8362 10.3907 4.75 9.75 4.75C9.1093 4.75 8.51885 4.8362 8.07995 4.9825C7.8618 5.0552 7.66725 5.1473 7.52205 5.2617C7.3797 5.3739 7.25 5.537 7.25 5.75C7.25 5.963 7.3797 6.1261 7.52205 6.2383C7.66725 6.3527 7.8618 6.4448 8.07995 6.5175C8.51885 6.6638 9.1093 6.75 9.75 6.75Z" fill="#BDECFF" stroke="#333333" stroke-miterlimit="10" stroke-linecap="round" stroke-linejoin="round"/>
<path d="M22.25 6.75C22.8907 6.75 23.4811 6.6638 23.92 6.5175C24.1382 6.4448 24.3327 6.3527 24.4779 6.2383C24.6203 6.1261 24.75 5.963 24.75 5.75C24.75 5.537 24.6203 5.3739 24.4779 5.2617C24.3327 5.1473 24.1382 5.0552 23.92 4.9825C23.4811 4.8362 22.8907 4.75 22.25 4.75C21.6093 4.75 21.0189 4.8362 20.58 4.9825C20.3618 5.0552 20.1673 5.1473 20.0221 5.2617C19.8797 5.3739 19.75 5.537 19.75 5.75C19.75 5.963 19.8797 6.1261 20.0221 6.2383C20.1673 6.3527 20.3618 6.4448 20.58 6.5175C21.0189 6.6638 21.6093 6.75 22.25 6.75Z" fill="#BDECFF" stroke="#333333" stroke-miterlimit="10" stroke-linecap="round" stroke-linejoin="round"/>
<path d="M16.25 9.75C16.8907 9.75 17.4811 9.6638 17.92 9.5175C18.1382 9.4448 18.3327 9.3527 18.4779 9.2383C18.6203 9.1261 18.75 8.963 18.75 8.75C18.75 8.537 18.6203 8.3739 18.4779 8.2617C18.3327 8.1473 18.1382 8.0552 17.92 7.9825C17.4811 7.8362 16.8907 7.75 16.25 7.75C15.6093 7.75 15.0189 7.8362 14.58 7.9825C14.3618 8.0552 14.1672 8.1473 14.022 8.2617C13.8797 8.3739 13.75 8.537 13.75 8.75C13.75 8.963 13.8797 9.1261 14.022 9.2383C14.1672 9.3527 14.3618 9.4448 14.58 9.5175C15.0189 9.6638 15.6093 9.75 16.25 9.75Z" fill="#BDECFF" stroke="#333333" stroke-miterlimit="10" stroke-linecap="round" stroke-linejoin="round"/>
</svg>
